<svg xmlns="http://www.w3.org/2000/svg" viewBox="0 0 256 256">
    <g>
        <path class="st0" d="M203.1,59l-6.1-6.1c-5.6-5.6-14.6-5.6-20.2,0L128,101.8L79.2,52.9c-5.6-5.6-14.6-5.6-20.2,0L52.9,59
            c-5.6,5.6-5.6,14.6,0,20.2l48.8,48.8l-48.8,48.8c-5.6,5.6-5.6,14.6,0,20.2l6.1,6.1c5.6,5.6,14.6,5.6,20.2,0l48.8-48.8l48.8,48.8
            c5.6,5.6,14.6,5.6,20.2,0l6.1-6.1c5.6-5.6,5.6-14.6,0-20.2L154.2,128l48.8-48.8C208.6,73.6,208.6,64.6,203.1,59z"/>
        <path class="st0" d="M196.5,10H59.5C32.2,10,10,32.2,10,59.5v137.1c0,27.3,22.2,49.5,49.5,49.5h137.1c27.3,0,49.5-22.2,49.5-49.5
            V59.5C246,32.2,223.8,10,196.5,10z M223,196.5c0,14.6-11.9,26.5-26.5,26.5H59.5C44.8,223,33,211.2,33,196.5V59.5
            C33,44.8,44.8,33,59.5,33h137.1c14.6,0,26.5,11.9,26.5,26.5V196.5z"/>
    </g>
</svg>