<svg xmlns="http://www.w3.org/2000/svg" viewBox="0 0 256 256">
<g>
	<path d="M131.9,47.7l-7.8,0c-7.2,0-13,5.8-13,13l0.1,50.5l-50.5-0.1c-7.2,0-13,5.8-13,13l0,7.8c0,7.2,5.8,13,13,13h50.4v50.4
		c0,7.2,5.8,13,13,13h7.8c7.2,0,13-5.8,13-13v-50.4h50.4c7.2,0,13-5.8,13-13v-7.8c0-7.2-5.8-13-13-13l-50.5,0.1V60.7
		C144.8,53.5,139.1,47.7,131.9,47.7z"/>
	<path d="M196.5,10h-137C32.2,10,10,32.2,10,59.5v137.1c0,27.3,22.2,49.5,49.5,49.5h137.1c27.3,0,49.5-22.2,49.5-49.5V59.5
		C246,32.2,223.8,10,196.5,10z M223,196.5c0,14.6-11.9,26.5-26.5,26.5h-137C44.8,223,33,211.2,33,196.5v-137
		C33,44.8,44.8,33,59.5,33h137.1c14.6,0,26.5,11.9,26.5,26.5v137H223z"/>
</g>
</svg>
